<svg width="402" height="143" viewBox="0 0 402 143" fill="none" xmlns="http://www.w3.org/2000/svg">
<path d="M0 71.9403L201 133.428L201 10.4525L0 71.9403Z" fill="#C8C8C8"/>
<path d="M101.246 91.0536V52.1356L94.6719 50.1669L95.2695 47.284H108.242C110.82 47.284 113.035 47.3544 114.887 47.495C116.738 47.6122 118.602 47.9169 120.477 48.409C122.375 48.9012 124.121 49.6747 125.715 50.7294C127.238 51.7372 128.445 53.0731 129.336 54.7372C130.227 56.4012 130.672 58.1708 130.672 60.0458C130.672 66.2567 127.121 70.37 120.02 72.3856L130.918 90.7372L137.773 93.0926L137.105 95.9403H123.887L124.414 93.2333L112.707 71.8583C115.801 70.7098 118.121 69.5145 119.668 68.2723C121.238 67.0301 122.258 65.7762 122.727 64.5106C123.219 63.245 123.465 61.745 123.465 60.0106C123.465 57.784 122.703 55.9559 121.18 54.5262C119.656 53.0731 117.723 52.0067 115.379 51.327C113.059 50.6239 110.598 50.2137 107.996 50.0965V90.6317L115.238 92.5653L114.5 95.9403H94.4258L94.918 92.9872L101.246 91.0536ZM139.883 87.4676C139.883 85.2176 140.281 83.4833 141.078 82.2645C141.875 81.0458 143.234 80.038 145.156 79.2411C146.516 78.6551 148.227 78.2215 150.289 77.9403C152.375 77.659 154.332 77.5184 156.16 77.5184C157.121 77.5184 158.059 77.5536 158.973 77.6239V75.7255C158.973 73.5692 158.727 71.6122 158.234 69.8544C157.766 68.0731 156.828 66.7958 155.422 66.0223C154.93 65.7411 154.273 65.5301 153.453 65.3895C152.656 65.2489 151.812 65.1786 150.922 65.1786C150.125 65.1786 149.34 65.2606 148.566 65.4247L147.371 71.8231C146.715 72.1747 146 72.3505 145.227 72.3505C144.617 72.3505 143.984 72.1747 143.328 71.8231C142.695 71.4715 142.168 71.0028 141.746 70.4169C141.324 69.8309 141.113 69.2098 141.113 68.5536C141.113 67.3114 142.098 66.1395 144.066 65.038C145.238 64.4051 146.621 63.8309 148.215 63.3153C149.832 62.7997 151.367 62.4012 152.82 62.12C154.297 61.8153 155.398 61.663 156.125 61.663C159.359 61.663 161.691 62.6122 163.121 64.5106C164.551 66.409 165.266 68.9872 165.266 72.245V89.1903C166.133 90.0809 167.059 90.8192 168.043 91.4051C169.027 91.9676 170.129 92.3895 171.348 92.6708L170.926 94.7098C169.613 95.3192 168.254 95.7997 166.848 96.1512C165.465 96.5262 164.152 96.7489 162.91 96.8192C162.535 95.7176 162.113 94.7333 161.645 93.8661C161.199 92.9989 160.625 92.1434 159.922 91.2997C159.406 92.0497 158.516 92.87 157.25 93.7606C155.984 94.6278 154.59 95.3544 153.066 95.9403C151.566 96.5262 150.195 96.8192 148.953 96.8192C146.891 96.8192 145.18 96.3505 143.82 95.413C142.461 94.452 141.465 93.2567 140.832 91.827C140.199 90.3973 139.883 88.9442 139.883 87.4676ZM150.008 92.0028C150.312 92.1434 150.711 92.2137 151.203 92.2137C152.258 92.2137 153.559 92.0028 155.105 91.5809C156.676 91.1356 157.965 90.6551 158.973 90.1395V79.8387C156.652 80.0028 154.648 80.2958 152.961 80.7176C151.273 81.1395 149.949 81.5965 148.988 82.0887C148.027 82.5575 147.371 82.9911 147.02 83.3895C146.574 83.8348 146.352 84.6083 146.352 85.7098C146.352 86.5067 146.516 87.3505 146.844 88.2411C147.195 89.1317 147.652 89.9286 148.215 90.6317C148.777 91.3114 149.375 91.7684 150.008 92.0028Z" fill="black"/>
<path d="M402 71.9403L201 10.4525V133.428L402 71.9403Z" fill="#616161"/>
<path d="M299.754 91.0536V52.1356L306.328 50.1669L305.73 47.284H292.758C290.18 47.284 287.965 47.3544 286.113 47.495C284.262 47.6122 282.398 47.9169 280.523 48.409C278.625 48.9012 276.879 49.6747 275.285 50.7294C273.762 51.7372 272.555 53.0731 271.664 54.7372C270.773 56.4012 270.328 58.1708 270.328 60.0458C270.328 66.2567 273.879 70.37 280.98 72.3856L270.082 90.7372L263.227 93.0926L263.895 95.9403H277.113L276.586 93.2333L288.293 71.8583C285.199 70.7098 282.879 69.5145 281.332 68.2723C279.762 67.0301 278.742 65.7762 278.273 64.5106C277.781 63.245 277.535 61.745 277.535 60.0106C277.535 57.784 278.297 55.9559 279.82 54.5262C281.344 53.0731 283.277 52.0067 285.621 51.327C287.941 50.6239 290.402 50.2137 293.004 50.0965V90.6317L285.762 92.5653L286.5 95.9403H306.574L306.082 92.9872L299.754 91.0536ZM261.117 87.4676C261.117 85.2176 260.719 83.4833 259.922 82.2645C259.125 81.0458 257.766 80.038 255.844 79.2411C254.484 78.6551 252.773 78.2215 250.711 77.9403C248.625 77.659 246.668 77.5184 244.84 77.5184C243.879 77.5184 242.941 77.5536 242.027 77.6239V75.7255C242.027 73.5692 242.273 71.6122 242.766 69.8544C243.234 68.0731 244.172 66.7958 245.578 66.0223C246.07 65.7411 246.727 65.5301 247.547 65.3895C248.344 65.2489 249.188 65.1786 250.078 65.1786C250.875 65.1786 251.66 65.2606 252.434 65.4247L253.629 71.8231C254.285 72.1747 255 72.3505 255.773 72.3505C256.383 72.3505 257.016 72.1747 257.672 71.8231C258.305 71.4715 258.832 71.0028 259.254 70.4169C259.676 69.8309 259.887 69.2098 259.887 68.5536C259.887 67.3114 258.902 66.1395 256.934 65.038C255.762 64.4051 254.379 63.8309 252.785 63.3153C251.168 62.7997 249.633 62.4012 248.18 62.12C246.703 61.8153 245.602 61.663 244.875 61.663C241.641 61.663 239.309 62.6122 237.879 64.5106C236.449 66.409 235.734 68.9872 235.734 72.245V89.1903C234.867 90.0809 233.941 90.8192 232.957 91.4051C231.973 91.9676 230.871 92.3895 229.652 92.6708L230.074 94.7098C231.387 95.3192 232.746 95.7997 234.152 96.1512C235.535 96.5262 236.848 96.7489 238.09 96.8192C238.465 95.7176 238.887 94.7333 239.355 93.8661C239.801 92.9989 240.375 92.1434 241.078 91.2997C241.594 92.0497 242.484 92.87 243.75 93.7606C245.016 94.6278 246.41 95.3544 247.934 95.9403C249.434 96.5262 250.805 96.8192 252.047 96.8192C254.109 96.8192 255.82 96.3505 257.18 95.413C258.539 94.452 259.535 93.2567 260.168 91.827C260.801 90.3973 261.117 88.9442 261.117 87.4676ZM250.992 92.0028C250.688 92.1434 250.289 92.2137 249.797 92.2137C248.742 92.2137 247.441 92.0028 245.895 91.5809C244.324 91.1356 243.035 90.6551 242.027 90.1395V79.8387C244.348 80.0028 246.352 80.2958 248.039 80.7176C249.727 81.1395 251.051 81.5965 252.012 82.0887C252.973 82.5575 253.629 82.9911 253.98 83.3895C254.426 83.8348 254.648 84.6083 254.648 85.7098C254.648 86.5067 254.484 87.3505 254.156 88.2411C253.805 89.1317 253.348 89.9286 252.785 90.6317C252.223 91.3114 251.625 91.7684 250.992 92.0028ZM203.777 113.518V46.1239L198.504 44.1903V111.62L203.777 113.518Z" fill="white"/>
</svg>
